<svg width="703" height="170" viewBox="0 0 703 170" fill="none" xmlns="http://www.w3.org/2000/svg">
<g filter="url(#filter0_d_42_16)">
<rect x="42" y="26" width="613" height="80" rx="40" fill="white" shape-rendering="crispEdges"/>
<rect x="52" y="36" width="60" height="60" rx="30" fill="url(#paint0_linear_42_16)"/>
<path d="M77 63H86M77 67H86M77 71H82M92 66C92 71.523 87.523 76 82 76H72V66C72 60.477 76.477 56 82 56C87.523 56 92 60.477 92 66Z" stroke="#434343" stroke-width="2" stroke-linecap="round" stroke-linejoin="round"/>
<path d="M123.9 48.26H126.52L130.12 59.52L133.8 48.26H136.34L131.46 62.5H128.68L123.9 48.26ZM145.573 59.28C145.313 60.4 144.753 61.28 143.913 61.9C143.073 62.54 142.053 62.84 140.893 62.84C139.333 62.84 138.093 62.34 137.173 61.34C136.253 60.34 135.813 59.04 135.813 57.46C135.813 55.86 136.273 54.52 137.213 53.46C138.153 52.42 139.353 51.88 140.813 51.88C142.313 51.88 143.513 52.4 144.393 53.44C145.273 54.48 145.713 55.88 145.713 57.66V57.9H138.093C138.113 58.94 138.373 59.76 138.873 60.32C139.353 60.88 140.053 61.16 140.933 61.16C141.553 61.16 142.053 61.02 142.453 60.72C142.853 60.42 143.153 59.94 143.393 59.28H145.573ZM143.433 56.38C143.353 55.52 143.093 54.84 142.613 54.34C142.133 53.84 141.533 53.58 140.793 53.58C140.033 53.58 139.433 53.82 138.973 54.3C138.513 54.78 138.233 55.48 138.133 56.38H143.433ZM153.286 51.98V54.16C152.886 54.12 152.606 54.1 152.486 54.1C150.486 54.1 149.506 55.4 149.506 57.96V62.5H147.246V52.18H149.386V54.24C150.106 52.72 151.266 51.94 152.846 51.94L153.286 51.98ZM156.817 48.2V50.44H154.537V48.2H156.817ZM156.817 52.18V62.5H154.537V52.18H156.817ZM165.662 50.38V48.22H167.942V50.38H165.662ZM158.282 53.86V52.16H159.982V51.3C159.982 50.1 160.222 49.3 160.742 48.86C161.262 48.44 161.962 48.22 162.842 48.22C163.582 48.22 164.122 48.28 164.442 48.36V50.14C164.122 50.06 163.782 50.02 163.382 50.02C162.622 50.02 162.262 50.38 162.262 51.1V52.16H164.202V53.86H162.262V62.5H159.982V53.86H158.282ZM165.662 62.5V52.16H167.942V62.5H165.662ZM179.775 58.6C179.615 59.88 179.095 60.88 178.255 61.64C177.395 62.4 176.315 62.76 175.035 62.76C173.475 62.76 172.255 62.28 171.335 61.3C170.415 60.32 169.955 59.04 169.955 57.44C169.955 55.74 170.415 54.38 171.335 53.38C172.255 52.38 173.515 51.86 175.095 51.86C176.415 51.86 177.475 52.2 178.275 52.86C179.075 53.54 179.555 54.46 179.695 55.64H177.435C177.295 55 177.035 54.5 176.635 54.14C176.235 53.8 175.715 53.62 175.115 53.62C174.235 53.62 173.535 53.96 173.035 54.62C172.515 55.28 172.275 56.18 172.275 57.32C172.275 58.48 172.515 59.36 172.995 60C173.475 60.64 174.155 60.96 175.035 60.96C175.715 60.96 176.255 60.76 176.695 60.36C177.135 59.96 177.415 59.36 177.535 58.6H179.775ZM181.428 55.36C181.668 53.04 183.168 51.86 185.948 51.86C187.228 51.86 188.268 52.12 189.028 52.62C189.788 53.14 190.188 53.92 190.188 54.98V60.22C190.188 60.52 190.208 60.72 190.288 60.82C190.368 60.94 190.508 60.98 190.728 60.98C190.888 60.98 191.048 60.98 191.248 60.94V62.54C190.648 62.7 190.168 62.76 189.768 62.76C188.788 62.76 188.228 62.36 188.088 61.52C187.208 62.36 186.008 62.76 184.468 62.76C183.388 62.76 182.548 62.5 181.928 61.94C181.288 61.38 180.988 60.64 180.988 59.68C180.988 59.4 181.008 59.12 181.088 58.86C181.148 58.62 181.228 58.4 181.308 58.2C181.388 58.02 181.528 57.84 181.728 57.68C181.928 57.52 182.088 57.4 182.208 57.28C182.328 57.18 182.548 57.08 182.828 56.98C183.108 56.9 183.328 56.82 183.468 56.78C183.608 56.74 183.848 56.68 184.208 56.62C184.548 56.58 184.768 56.54 184.888 56.52C185.008 56.5 185.248 56.46 185.608 56.42C186.408 56.32 186.968 56.24 187.268 56.16C187.548 56.08 187.748 55.98 187.868 55.82C187.948 55.72 188.008 55.48 188.008 55.08C188.008 54.04 187.288 53.52 185.888 53.52C185.128 53.52 184.588 53.66 184.248 53.94C183.888 54.22 183.668 54.7 183.588 55.36H181.428ZM187.988 57.32C187.808 57.42 187.608 57.5 187.388 57.58C187.148 57.66 186.968 57.7 186.828 57.72C186.688 57.74 186.468 57.76 186.168 57.8C185.868 57.84 185.668 57.88 185.588 57.88C185.308 57.92 185.088 57.96 184.928 58C184.768 58.04 184.568 58.08 184.328 58.16C184.088 58.24 183.908 58.34 183.788 58.46C183.668 58.58 183.548 58.72 183.468 58.92C183.368 59.12 183.328 59.34 183.328 59.6C183.328 60.1 183.488 60.48 183.808 60.74C184.128 61.02 184.588 61.14 185.188 61.14C186.188 61.14 186.968 60.88 187.528 60.32C187.828 60.02 187.988 59.42 187.988 58.54V57.32ZM197.681 52.18V53.84H195.601V59.28C195.601 59.6 195.601 59.84 195.621 59.96C195.621 60.08 195.661 60.22 195.741 60.38C195.801 60.54 195.921 60.64 196.081 60.68C196.241 60.74 196.481 60.76 196.781 60.76C197.141 60.76 197.441 60.76 197.681 60.72V62.52C197.221 62.58 196.701 62.6 196.141 62.6C195.741 62.6 195.381 62.58 195.081 62.52C194.781 62.46 194.541 62.38 194.341 62.3C194.141 62.22 193.961 62.1 193.841 61.9C193.701 61.7 193.601 61.54 193.521 61.42C193.441 61.3 193.401 61.06 193.361 60.74C193.321 60.42 193.321 60.18 193.321 60.02V59.14V59.02V58.9V58.76V53.84H191.601V52.18H193.321V49.08H195.601V52.18H197.681ZM201.642 48.2V50.44H199.362V48.2H201.642ZM201.642 52.18V62.5H199.362V52.18H201.642ZM208.906 51.88C210.466 51.88 211.726 52.38 212.666 53.36C213.586 54.36 214.066 55.68 214.066 57.34C214.066 59.02 213.586 60.36 212.666 61.34C211.746 62.34 210.486 62.82 208.906 62.82C207.286 62.82 206.006 62.34 205.066 61.34C204.106 60.36 203.646 59.02 203.646 57.34C203.646 55.68 204.106 54.36 205.066 53.36C206.026 52.38 207.306 51.88 208.906 51.88ZM208.866 53.68C207.946 53.68 207.246 54.02 206.726 54.66C206.206 55.32 205.946 56.22 205.946 57.34C205.946 58.5 206.206 59.42 206.726 60.06C207.246 60.72 207.966 61.04 208.886 61.04C209.766 61.04 210.466 60.72 210.986 60.06C211.506 59.4 211.766 58.48 211.766 57.32C211.766 56.2 211.506 55.3 210.986 54.66C210.466 54.02 209.766 53.68 208.866 53.68ZM218.161 52.18V53.7C218.981 52.5 220.121 51.9 221.581 51.9C222.741 51.9 223.621 52.22 224.201 52.86C224.781 53.5 225.081 54.42 225.081 55.62V62.5H222.801V56.5C222.801 56.1 222.781 55.76 222.741 55.48C222.701 55.2 222.601 54.92 222.481 54.64C222.361 54.36 222.161 54.16 221.881 54.02C221.601 53.88 221.241 53.8 220.801 53.8C219.121 53.8 218.281 54.86 218.281 56.94V62.5H216.001V52.18H218.161ZM242.392 58.6C242.232 59.88 241.712 60.88 240.872 61.64C240.012 62.4 238.932 62.76 237.652 62.76C236.092 62.76 234.872 62.28 233.952 61.3C233.032 60.32 232.572 59.04 232.572 57.44C232.572 55.74 233.032 54.38 233.952 53.38C234.872 52.38 236.132 51.86 237.712 51.86C239.032 51.86 240.092 52.2 240.892 52.86C241.692 53.54 242.172 54.46 242.312 55.64H240.052C239.912 55 239.652 54.5 239.252 54.14C238.852 53.8 238.332 53.62 237.732 53.62C236.852 53.62 236.152 53.96 235.652 54.62C235.132 55.28 234.892 56.18 234.892 57.32C234.892 58.48 235.132 59.36 235.612 60C236.092 60.64 236.772 60.96 237.652 60.96C238.332 60.96 238.872 60.76 239.312 60.36C239.752 59.96 240.032 59.36 240.152 58.6H242.392ZM248.925 51.88C250.485 51.88 251.745 52.38 252.685 53.36C253.605 54.36 254.085 55.68 254.085 57.34C254.085 59.02 253.605 60.36 252.685 61.34C251.765 62.34 250.505 62.82 248.925 62.82C247.305 62.82 246.025 62.34 245.085 61.34C244.125 60.36 243.665 59.02 243.665 57.34C243.665 55.68 244.125 54.36 245.085 53.36C246.045 52.38 247.325 51.88 248.925 51.88ZM248.885 53.68C247.965 53.68 247.265 54.02 246.745 54.66C246.225 55.32 245.965 56.22 245.965 57.34C245.965 58.5 246.225 59.42 246.745 60.06C247.265 60.72 247.985 61.04 248.905 61.04C249.785 61.04 250.485 60.72 251.005 60.06C251.525 59.4 251.785 58.48 251.785 57.32C251.785 56.2 251.525 55.3 251.005 54.66C250.485 54.02 249.785 53.68 248.885 53.68ZM265.781 48.26V62.5H263.641V61.08C262.981 62.22 261.881 62.78 260.341 62.78C258.881 62.78 257.721 62.3 256.861 61.3C256.001 60.32 255.581 59 255.581 57.32C255.581 55.68 256.001 54.36 256.841 53.38C257.681 52.4 258.821 51.9 260.261 51.9C261.701 51.9 262.801 52.44 263.541 53.52V48.26H265.781ZM260.681 53.74C259.801 53.74 259.121 54.06 258.621 54.7C258.121 55.34 257.881 56.2 257.881 57.28C257.881 58.42 258.121 59.32 258.641 59.96C259.161 60.62 259.861 60.94 260.761 60.94C261.641 60.94 262.341 60.62 262.841 59.98C263.341 59.34 263.601 58.46 263.601 57.32C263.601 56.2 263.341 55.32 262.821 54.68C262.301 54.06 261.601 53.74 260.681 53.74ZM277.467 59.28C277.207 60.4 276.647 61.28 275.807 61.9C274.967 62.54 273.947 62.84 272.787 62.84C271.227 62.84 269.987 62.34 269.067 61.34C268.147 60.34 267.707 59.04 267.707 57.46C267.707 55.86 268.167 54.52 269.107 53.46C270.047 52.42 271.247 51.88 272.707 51.88C274.207 51.88 275.407 52.4 276.287 53.44C277.167 54.48 277.607 55.88 277.607 57.66V57.9H269.987C270.007 58.94 270.267 59.76 270.767 60.32C271.247 60.88 271.947 61.16 272.827 61.16C273.447 61.16 273.947 61.02 274.347 60.72C274.747 60.42 275.047 59.94 275.287 59.28H277.467ZM275.327 56.38C275.247 55.52 274.987 54.84 274.507 54.34C274.027 53.84 273.427 53.58 272.687 53.58C271.927 53.58 271.327 53.82 270.867 54.3C270.407 54.78 270.127 55.48 270.027 56.38H275.327ZM287.187 48.26V53.6C287.947 52.48 289.027 51.92 290.447 51.92C291.567 51.92 292.427 52.24 293.067 52.84C293.687 53.44 294.007 54.34 294.007 55.5V62.5H291.707V56.24C291.707 55.46 291.567 54.86 291.287 54.44C291.007 54.04 290.487 53.82 289.707 53.82C288.827 53.82 288.187 54.12 287.787 54.68C287.387 55.26 287.187 56.02 287.187 56.96V62.5H284.927V48.26H287.187ZM296.291 55.36C296.531 53.04 298.031 51.86 300.811 51.86C302.091 51.86 303.131 52.12 303.891 52.62C304.651 53.14 305.051 53.92 305.051 54.98V60.22C305.051 60.52 305.071 60.72 305.151 60.82C305.231 60.94 305.371 60.98 305.591 60.98C305.751 60.98 305.911 60.98 306.111 60.94V62.54C305.511 62.7 305.031 62.76 304.631 62.76C303.651 62.76 303.091 62.36 302.951 61.52C302.071 62.36 300.871 62.76 299.331 62.76C298.251 62.76 297.411 62.5 296.791 61.94C296.151 61.38 295.851 60.64 295.851 59.68C295.851 59.4 295.871 59.12 295.951 58.86C296.011 58.62 296.091 58.4 296.171 58.2C296.251 58.02 296.391 57.84 296.591 57.68C296.791 57.52 296.951 57.4 297.071 57.28C297.191 57.18 297.411 57.08 297.691 56.98C297.971 56.9 298.191 56.82 298.331 56.78C298.471 56.74 298.711 56.68 299.071 56.62C299.411 56.58 299.631 56.54 299.751 56.52C299.871 56.5 300.111 56.46 300.471 56.42C301.271 56.32 301.831 56.24 302.131 56.16C302.411 56.08 302.611 55.98 302.731 55.82C302.811 55.72 302.871 55.48 302.871 55.08C302.871 54.04 302.151 53.52 300.751 53.52C299.991 53.52 299.451 53.66 299.111 53.94C298.751 54.22 298.531 54.7 298.451 55.36H296.291ZM302.851 57.32C302.671 57.42 302.471 57.5 302.251 57.58C302.011 57.66 301.831 57.7 301.691 57.72C301.551 57.74 301.331 57.76 301.031 57.8C300.731 57.84 300.531 57.88 300.451 57.88C300.171 57.92 299.951 57.96 299.791 58C299.631 58.04 299.431 58.08 299.191 58.16C298.951 58.24 298.771 58.34 298.651 58.46C298.531 58.58 298.411 58.72 298.331 58.92C298.231 59.12 298.191 59.34 298.191 59.6C298.191 60.1 298.351 60.48 298.671 60.74C298.991 61.02 299.451 61.14 300.051 61.14C301.051 61.14 301.831 60.88 302.391 60.32C302.691 60.02 302.851 59.42 302.851 58.54V57.32ZM315.685 55.18H313.505C313.365 54.1 312.625 53.54 311.265 53.54C310.665 53.54 310.225 53.66 309.905 53.86C309.585 54.08 309.425 54.38 309.425 54.74C309.425 54.86 309.425 54.98 309.445 55.06C309.465 55.16 309.505 55.24 309.565 55.32C309.625 55.4 309.685 55.46 309.725 55.5C309.765 55.56 309.865 55.62 309.985 55.66C310.105 55.72 310.185 55.76 310.265 55.8C310.345 55.84 310.465 55.88 310.645 55.92C310.805 55.96 310.945 56 311.045 56.02C311.145 56.06 311.305 56.1 311.545 56.14C311.765 56.18 311.945 56.22 312.065 56.24C312.585 56.36 312.945 56.46 313.185 56.52C313.425 56.58 313.765 56.7 314.205 56.88C314.645 57.06 314.985 57.24 315.205 57.44C315.405 57.64 315.605 57.9 315.785 58.24C315.965 58.58 316.065 58.96 316.065 59.4C316.065 60.44 315.645 61.28 314.845 61.88C314.025 62.5 312.925 62.8 311.565 62.8C310.085 62.8 308.965 62.5 308.185 61.88C307.385 61.28 306.965 60.38 306.925 59.2H309.105C309.225 60.5 310.045 61.14 311.605 61.14C312.265 61.14 312.805 61.02 313.205 60.74C313.605 60.46 313.825 60.1 313.825 59.64C313.825 59.42 313.765 59.22 313.665 59.06C313.565 58.9 313.405 58.78 313.185 58.66C312.945 58.54 312.725 58.46 312.525 58.4C312.325 58.34 312.045 58.26 311.705 58.18L311.585 58.16C311.545 58.16 311.525 58.14 311.485 58.14C311.445 58.14 311.405 58.12 311.365 58.1C309.885 57.74 308.965 57.46 308.565 57.26C307.605 56.82 307.145 56.06 307.145 55C307.145 54.04 307.505 53.28 308.265 52.72C309.005 52.16 310.045 51.88 311.365 51.88C312.625 51.88 313.665 52.16 314.465 52.7C315.265 53.26 315.685 54.08 315.685 55.18ZM325.722 48.26V53.52C326.482 52.46 327.602 51.92 329.102 51.92C330.462 51.92 331.562 52.42 332.402 53.38C333.242 54.36 333.662 55.66 333.662 57.26C333.662 58.94 333.222 60.28 332.382 61.28C331.522 62.28 330.382 62.78 328.982 62.78C327.422 62.78 326.282 62.22 325.602 61.1V62.5H323.462V48.26H325.722ZM328.522 53.74C327.622 53.74 326.922 54.06 326.402 54.7C325.882 55.34 325.642 56.24 325.642 57.36C325.642 58.48 325.882 59.34 326.402 59.98C326.922 60.62 327.622 60.94 328.522 60.94C329.362 60.94 330.062 60.62 330.582 59.96C331.102 59.3 331.362 58.42 331.362 57.3C331.362 56.22 331.102 55.34 330.582 54.7C330.062 54.06 329.382 53.74 328.522 53.74ZM344.909 59.28C344.649 60.4 344.089 61.28 343.249 61.9C342.409 62.54 341.389 62.84 340.229 62.84C338.669 62.84 337.429 62.34 336.509 61.34C335.589 60.34 335.149 59.04 335.149 57.46C335.149 55.86 335.609 54.52 336.549 53.46C337.489 52.42 338.689 51.88 340.149 51.88C341.649 51.88 342.849 52.4 343.729 53.44C344.609 54.48 345.049 55.88 345.049 57.66V57.9H337.429C337.449 58.94 337.709 59.76 338.209 60.32C338.689 60.88 339.389 61.16 340.269 61.16C340.889 61.16 341.389 61.02 341.789 60.72C342.189 60.42 342.489 59.94 342.729 59.28H344.909ZM342.769 56.38C342.689 55.52 342.429 54.84 341.949 54.34C341.469 53.84 340.869 53.58 340.129 53.58C339.369 53.58 338.769 53.82 338.309 54.3C337.849 54.78 337.569 55.48 337.469 56.38H342.769ZM356.022 59.28C355.762 60.4 355.202 61.28 354.362 61.9C353.522 62.54 352.502 62.84 351.342 62.84C349.782 62.84 348.542 62.34 347.622 61.34C346.702 60.34 346.262 59.04 346.262 57.46C346.262 55.86 346.722 54.52 347.662 53.46C348.602 52.42 349.802 51.88 351.262 51.88C352.762 51.88 353.962 52.4 354.842 53.44C355.722 54.48 356.162 55.88 356.162 57.66V57.9H348.542C348.562 58.94 348.822 59.76 349.322 60.32C349.802 60.88 350.502 61.16 351.382 61.16C352.002 61.16 352.502 61.02 352.902 60.72C353.302 60.42 353.602 59.94 353.842 59.28H356.022ZM353.882 56.38C353.802 55.52 353.542 54.84 353.062 54.34C352.582 53.84 351.982 53.58 351.242 53.58C350.482 53.58 349.882 53.82 349.422 54.3C348.962 54.78 348.682 55.48 348.582 56.38H353.882ZM360.075 52.18V53.7C360.895 52.5 362.035 51.9 363.495 51.9C364.655 51.9 365.535 52.22 366.115 52.86C366.695 53.5 366.995 54.42 366.995 55.62V62.5H364.715V56.5C364.715 56.1 364.695 55.76 364.655 55.48C364.615 55.2 364.515 54.92 364.395 54.64C364.275 54.36 364.075 54.16 363.795 54.02C363.515 53.88 363.155 53.8 362.715 53.8C361.035 53.8 360.195 54.86 360.195 56.94V62.5H357.915V52.18H360.075ZM383.126 55.18H380.946C380.806 54.1 380.066 53.54 378.706 53.54C378.106 53.54 377.666 53.66 377.346 53.86C377.026 54.08 376.866 54.38 376.866 54.74C376.866 54.86 376.866 54.98 376.886 55.06C376.906 55.16 376.946 55.24 377.006 55.32C377.066 55.4 377.126 55.46 377.166 55.5C377.206 55.56 377.306 55.62 377.426 55.66C377.546 55.72 377.626 55.76 377.706 55.8C377.786 55.84 377.906 55.88 378.086 55.92C378.246 55.96 378.386 56 378.486 56.02C378.586 56.06 378.746 56.1 378.986 56.14C379.206 56.18 379.386 56.22 379.506 56.24C380.026 56.36 380.386 56.46 380.626 56.52C380.866 56.58 381.206 56.7 381.646 56.88C382.086 57.06 382.426 57.24 382.646 57.44C382.846 57.64 383.046 57.9 383.226 58.24C383.406 58.58 383.506 58.96 383.506 59.4C383.506 60.44 383.086 61.28 382.286 61.88C381.466 62.5 380.366 62.8 379.006 62.8C377.526 62.8 376.406 62.5 375.626 61.88C374.826 61.28 374.406 60.38 374.366 59.2H376.546C376.666 60.5 377.486 61.14 379.046 61.14C379.706 61.14 380.246 61.02 380.646 60.74C381.046 60.46 381.266 60.1 381.266 59.64C381.266 59.42 381.206 59.22 381.106 59.06C381.006 58.9 380.846 58.78 380.626 58.66C380.386 58.54 380.166 58.46 379.966 58.4C379.766 58.34 379.486 58.26 379.146 58.18L379.026 58.16C378.986 58.16 378.966 58.14 378.926 58.14C378.886 58.14 378.846 58.12 378.806 58.1C377.326 57.74 376.406 57.46 376.006 57.26C375.046 56.82 374.586 56.06 374.586 55C374.586 54.04 374.946 53.28 375.706 52.72C376.446 52.16 377.486 51.88 378.806 51.88C380.066 51.88 381.106 52.16 381.906 52.7C382.706 53.26 383.126 54.08 383.126 55.18ZM394.557 59.28C394.297 60.4 393.737 61.28 392.897 61.9C392.057 62.54 391.037 62.84 389.877 62.84C388.317 62.84 387.077 62.34 386.157 61.34C385.237 60.34 384.797 59.04 384.797 57.46C384.797 55.86 385.257 54.52 386.197 53.46C387.137 52.42 388.337 51.88 389.797 51.88C391.297 51.88 392.497 52.4 393.377 53.44C394.257 54.48 394.697 55.88 394.697 57.66V57.9H387.077C387.097 58.94 387.357 59.76 387.857 60.32C388.337 60.88 389.037 61.16 389.917 61.16C390.537 61.16 391.037 61.02 391.437 60.72C391.837 60.42 392.137 59.94 392.377 59.28H394.557ZM392.417 56.38C392.337 55.52 392.077 54.84 391.597 54.34C391.117 53.84 390.517 53.58 389.777 53.58C389.017 53.58 388.417 53.82 387.957 54.3C387.497 54.78 387.217 55.48 387.117 56.38H392.417ZM398.61 52.18V53.7C399.43 52.5 400.57 51.9 402.03 51.9C403.19 51.9 404.07 52.22 404.65 52.86C405.23 53.5 405.53 54.42 405.53 55.62V62.5H403.25V56.5C403.25 56.1 403.23 55.76 403.19 55.48C403.15 55.2 403.05 54.92 402.93 54.64C402.81 54.36 402.61 54.16 402.33 54.02C402.05 53.88 401.69 53.8 401.25 53.8C399.57 53.8 398.73 54.86 398.73 56.94V62.5H396.45V52.18H398.61ZM412.955 52.18V53.84H410.875V59.28C410.875 59.6 410.875 59.84 410.895 59.96C410.895 60.08 410.935 60.22 411.015 60.38C411.075 60.54 411.195 60.64 411.355 60.68C411.515 60.74 411.755 60.76 412.055 60.76C412.415 60.76 412.715 60.76 412.955 60.72V62.52C412.495 62.58 411.975 62.6 411.415 62.6C411.015 62.6 410.655 62.58 410.355 62.52C410.055 62.46 409.815 62.38 409.615 62.3C409.415 62.22 409.235 62.1 409.115 61.9C408.975 61.7 408.875 61.54 408.795 61.42C408.715 61.3 408.675 61.06 408.635 60.74C408.595 60.42 408.595 60.18 408.595 60.02V59.14V59.02V58.9V58.76V53.84H406.875V52.18H408.595V49.08H410.875V52.18H412.955ZM425.181 52.18V53.84H423.101V59.28C423.101 59.6 423.101 59.84 423.121 59.96C423.121 60.08 423.161 60.22 423.241 60.38C423.301 60.54 423.421 60.64 423.581 60.68C423.741 60.74 423.981 60.76 424.281 60.76C424.641 60.76 424.941 60.76 425.181 60.72V62.52C424.721 62.58 424.201 62.6 423.641 62.6C423.241 62.6 422.881 62.58 422.581 62.52C422.281 62.46 422.041 62.38 421.841 62.3C421.641 62.22 421.461 62.1 421.341 61.9C421.201 61.7 421.101 61.54 421.021 61.42C420.941 61.3 420.901 61.06 420.861 60.74C420.821 60.42 420.821 60.18 420.821 60.02V59.14V59.02V58.9V58.76V53.84H419.101V52.18H420.821V49.08H423.101V52.18H425.181ZM431.582 51.88C433.142 51.88 434.402 52.38 435.342 53.36C436.262 54.36 436.742 55.68 436.742 57.34C436.742 59.02 436.262 60.36 435.342 61.34C434.422 62.34 433.162 62.82 431.582 62.82C429.962 62.82 428.682 62.34 427.742 61.34C426.782 60.36 426.322 59.02 426.322 57.34C426.322 55.68 426.782 54.36 427.742 53.36C428.702 52.38 429.982 51.88 431.582 51.88ZM431.542 53.68C430.622 53.68 429.922 54.02 429.402 54.66C428.882 55.32 428.622 56.22 428.622 57.34C428.622 58.5 428.882 59.42 429.402 60.06C429.922 60.72 430.642 61.04 431.562 61.04C432.442 61.04 433.142 60.72 433.662 60.06C434.182 59.4 434.442 58.48 434.442 57.32C434.442 56.2 434.182 55.3 433.662 54.66C433.142 54.02 432.442 53.68 431.542 53.68ZM453.323 52.18L449.503 62.3C449.463 62.4 449.383 62.6 449.283 62.9C449.163 63.2 449.103 63.4 449.063 63.5C449.023 63.62 448.943 63.8 448.823 64.06C448.703 64.34 448.623 64.52 448.563 64.62L448.263 65.1C448.123 65.32 448.003 65.48 447.883 65.56C447.763 65.66 447.623 65.78 447.463 65.92C447.303 66.06 447.123 66.16 446.963 66.22C446.783 66.28 446.583 66.34 446.363 66.38C446.143 66.42 445.903 66.44 445.663 66.44C445.223 66.44 444.703 66.4 444.083 66.32V64.4C444.563 64.5 444.963 64.54 445.283 64.54C445.443 64.54 445.583 64.52 445.723 64.48C445.843 64.44 445.963 64.36 446.083 64.24C446.183 64.12 446.283 64.02 446.363 63.92C446.443 63.82 446.503 63.68 446.583 63.5C446.663 63.32 446.723 63.18 446.763 63.08C446.803 62.98 446.843 62.82 446.923 62.6C446.983 62.4 447.023 62.26 447.043 62.2L443.083 52.18H445.583L448.343 59.78L450.943 52.18H453.323ZM459.375 51.88C460.935 51.88 462.195 52.38 463.135 53.36C464.055 54.36 464.535 55.68 464.535 57.34C464.535 59.02 464.055 60.36 463.135 61.34C462.215 62.34 460.955 62.82 459.375 62.82C457.755 62.82 456.475 62.34 455.535 61.34C454.575 60.36 454.115 59.02 454.115 57.34C454.115 55.68 454.575 54.36 455.535 53.36C456.495 52.38 457.775 51.88 459.375 51.88ZM459.335 53.68C458.415 53.68 457.715 54.02 457.195 54.66C456.675 55.32 456.415 56.22 456.415 57.34C456.415 58.5 456.675 59.42 457.195 60.06C457.715 60.72 458.435 61.04 459.355 61.04C460.235 61.04 460.935 60.72 461.455 60.06C461.975 59.4 462.235 58.48 462.235 57.32C462.235 56.2 461.975 55.3 461.455 54.66C460.935 54.02 460.235 53.68 459.335 53.68ZM475.51 52.18V62.5H473.37V60.96C472.49 62.18 471.37 62.78 469.97 62.78C468.83 62.78 467.95 62.46 467.35 61.82C466.75 61.18 466.45 60.24 466.45 59.02V52.18H468.73V58.08C468.73 58.44 468.73 58.74 468.75 58.96C468.75 59.18 468.79 59.42 468.87 59.7C468.95 59.98 469.05 60.18 469.19 60.32C469.33 60.48 469.53 60.6 469.79 60.7C470.05 60.82 470.37 60.86 470.75 60.86C471.59 60.86 472.23 60.56 472.63 59.96C473.03 59.36 473.23 58.58 473.23 57.64V52.18H475.51ZM483.774 51.98V54.16C483.374 54.12 483.094 54.1 482.974 54.1C480.974 54.1 479.994 55.4 479.994 57.96V62.5H477.734V52.18H479.874V54.24C480.594 52.72 481.754 51.94 483.334 51.94L483.774 51.98ZM499.772 59.28C499.512 60.4 498.952 61.28 498.112 61.9C497.272 62.54 496.252 62.84 495.092 62.84C493.532 62.84 492.292 62.34 491.372 61.34C490.452 60.34 490.012 59.04 490.012 57.46C490.012 55.86 490.472 54.52 491.412 53.46C492.352 52.42 493.552 51.88 495.012 51.88C496.512 51.88 497.712 52.4 498.592 53.44C499.472 54.48 499.912 55.88 499.912 57.66V57.9H492.292C492.312 58.94 492.572 59.76 493.072 60.32C493.552 60.88 494.252 61.16 495.132 61.16C495.752 61.16 496.252 61.02 496.652 60.72C497.052 60.42 497.352 59.94 497.592 59.28H499.772ZM497.632 56.38C497.552 55.52 497.292 54.84 496.812 54.34C496.332 53.84 495.732 53.58 494.992 53.58C494.232 53.58 493.632 53.82 493.172 54.3C492.712 54.78 492.432 55.48 492.332 56.38H497.632ZM503.825 52.18V53.64C504.665 52.48 505.745 51.9 507.065 51.9C507.745 51.9 508.325 52.06 508.825 52.36C509.325 52.68 509.705 53.1 509.945 53.66C510.765 52.5 511.885 51.9 513.285 51.9C514.245 51.9 515.065 52.2 515.705 52.78C516.345 53.36 516.665 54.16 516.665 55.18V62.5H514.385V56.16C514.385 55.44 514.245 54.86 514.005 54.44C513.745 54.04 513.265 53.82 512.545 53.82C511.805 53.82 511.245 54.06 510.865 54.52C510.465 54.98 510.285 55.62 510.285 56.44V62.5H508.005V56.04C508.005 55.32 507.885 54.76 507.665 54.38C507.445 54.02 506.985 53.82 506.305 53.82C505.525 53.82 504.945 54.08 504.545 54.58C504.145 55.08 503.945 55.74 503.945 56.56V62.5H501.665V52.18H503.825ZM518.948 55.36C519.188 53.04 520.688 51.86 523.468 51.86C524.748 51.86 525.788 52.12 526.548 52.62C527.308 53.14 527.708 53.92 527.708 54.98V60.22C527.708 60.52 527.728 60.72 527.808 60.82C527.888 60.94 528.028 60.98 528.248 60.98C528.408 60.98 528.568 60.98 528.768 60.94V62.54C528.168 62.7 527.688 62.76 527.288 62.76C526.308 62.76 525.748 62.36 525.608 61.52C524.728 62.36 523.528 62.76 521.988 62.76C520.908 62.76 520.068 62.5 519.448 61.94C518.808 61.38 518.508 60.64 518.508 59.68C518.508 59.4 518.528 59.12 518.608 58.86C518.668 58.62 518.748 58.4 518.828 58.2C518.908 58.02 519.048 57.84 519.248 57.68C519.448 57.52 519.608 57.4 519.728 57.28C519.848 57.18 520.068 57.08 520.348 56.98C520.628 56.9 520.848 56.82 520.988 56.78C521.128 56.74 521.368 56.68 521.728 56.62C522.068 56.58 522.288 56.54 522.408 56.52C522.528 56.5 522.768 56.46 523.128 56.42C523.928 56.32 524.488 56.24 524.788 56.16C525.068 56.08 525.268 55.98 525.388 55.82C525.468 55.72 525.528 55.48 525.528 55.08C525.528 54.04 524.808 53.52 523.408 53.52C522.648 53.52 522.108 53.66 521.768 53.94C521.408 54.22 521.188 54.7 521.108 55.36H518.948ZM525.508 57.32C525.328 57.42 525.128 57.5 524.908 57.58C524.668 57.66 524.488 57.7 524.348 57.72C524.208 57.74 523.988 57.76 523.688 57.8C523.388 57.84 523.188 57.88 523.108 57.88C522.828 57.92 522.608 57.96 522.448 58C522.288 58.04 522.088 58.08 521.848 58.16C521.608 58.24 521.428 58.34 521.308 58.46C521.188 58.58 521.068 58.72 520.988 58.92C520.888 59.12 520.848 59.34 520.848 59.6C520.848 60.1 521.008 60.48 521.328 60.74C521.648 61.02 522.108 61.14 522.708 61.14C523.708 61.14 524.488 60.88 525.048 60.32C525.348 60.02 525.508 59.42 525.508 58.54V57.32ZM532.501 48.2V50.44H530.221V48.2H532.501ZM532.501 52.18V62.5H530.221V52.18H532.501ZM537.325 48.26V62.5H535.065V48.26H537.325ZM542.749 59.8V62.5H540.029V59.8H542.749Z" fill="#1E1E1E"/>
<path d="M125.162 71.532H129.25C130.272 71.532 131.084 71.77 131.686 72.232C132.274 72.694 132.582 73.422 132.582 74.402C132.582 76.418 131.448 77.412 129.18 77.412H126.478V81.5H125.162V71.532ZM126.464 72.666V76.306H128.998C129.712 76.306 130.272 76.18 130.664 75.914C131.056 75.648 131.252 75.172 131.252 74.486C131.252 74.108 131.196 73.786 131.07 73.534C130.944 73.282 130.762 73.1 130.51 72.974C130.272 72.862 130.02 72.778 129.754 72.736C129.502 72.694 129.18 72.666 128.816 72.666H126.464ZM135.234 71.532V81.5H134.03V71.532H135.234ZM143.252 79.218C142.888 80.898 141.838 81.738 140.102 81.738C139.038 81.738 138.198 81.416 137.596 80.744C136.994 80.086 136.7 79.162 136.7 77.986C136.7 76.824 137.008 75.886 137.624 75.158C138.24 74.43 139.052 74.066 140.06 74.066C141.166 74.066 141.992 74.444 142.524 75.2C143.056 75.956 143.336 76.894 143.336 78.042V78.21H137.904L137.89 78.294C137.89 79.064 138.086 79.666 138.492 80.1C138.884 80.548 139.444 80.758 140.144 80.758C140.662 80.758 141.068 80.646 141.376 80.394C141.684 80.156 141.922 79.764 142.09 79.218H143.252ZM142.104 77.244C142.048 76.558 141.838 76.026 141.474 75.634C141.11 75.242 140.62 75.046 140.032 75.046C139.444 75.046 138.968 75.242 138.59 75.634C138.198 76.026 137.974 76.572 137.904 77.244H142.104ZM150.995 80.548V81.486C150.743 81.57 150.477 81.626 150.183 81.626C149.497 81.626 149.147 81.262 149.133 80.562C148.447 81.318 147.579 81.71 146.515 81.71C145.801 81.71 145.241 81.528 144.821 81.164C144.401 80.8 144.205 80.296 144.205 79.666C144.205 78.378 145.059 77.622 146.767 77.412C146.879 77.384 147.033 77.37 147.257 77.356C148.069 77.258 148.559 77.146 148.755 77.034C148.965 76.88 149.077 76.628 149.077 76.264C149.077 75.466 148.531 75.074 147.439 75.074C146.879 75.074 146.445 75.186 146.165 75.41C145.871 75.634 145.703 76.012 145.647 76.544H144.485C144.499 75.76 144.779 75.158 145.311 74.738C145.843 74.304 146.571 74.094 147.509 74.094C148.517 74.094 149.273 74.318 149.777 74.794C149.931 74.934 150.043 75.13 150.127 75.382C150.197 75.62 150.239 75.816 150.253 75.97C150.253 76.124 150.267 76.362 150.267 76.67C150.267 77.02 150.253 77.552 150.239 78.266C150.211 78.994 150.211 79.526 150.211 79.876C150.211 80.142 150.239 80.324 150.309 80.436C150.379 80.548 150.505 80.59 150.701 80.59C150.771 80.59 150.869 80.576 150.995 80.548ZM149.077 77.762C148.993 77.818 148.895 77.874 148.811 77.93C148.713 77.972 148.587 78.014 148.447 78.042C148.307 78.07 148.209 78.084 148.153 78.098C148.097 78.112 147.985 78.126 147.789 78.154C147.593 78.182 147.481 78.196 147.481 78.196C147.187 78.224 146.991 78.252 146.907 78.266C146.823 78.28 146.655 78.322 146.403 78.392C146.151 78.448 145.983 78.532 145.885 78.616C145.773 78.7 145.675 78.812 145.577 78.98C145.479 79.148 145.437 79.344 145.437 79.568C145.437 79.932 145.563 80.226 145.815 80.45C146.067 80.66 146.431 80.772 146.879 80.772C147.439 80.772 147.957 80.604 148.405 80.268C148.853 79.932 149.077 79.526 149.077 79.078V77.762ZM157.479 76.376H156.289C156.205 75.508 155.617 75.06 154.525 75.06C154.063 75.06 153.699 75.158 153.447 75.326C153.181 75.508 153.055 75.746 153.055 76.04C153.055 76.124 153.055 76.208 153.083 76.292C153.097 76.376 153.125 76.446 153.181 76.502C153.237 76.558 153.279 76.614 153.321 76.656C153.363 76.712 153.433 76.754 153.531 76.796C153.629 76.838 153.699 76.866 153.755 76.894C153.811 76.922 153.895 76.964 154.035 76.992C154.175 77.02 154.273 77.048 154.329 77.062C154.385 77.076 154.483 77.104 154.651 77.132C154.819 77.174 154.917 77.202 154.973 77.202C155.309 77.286 155.575 77.342 155.743 77.384C155.911 77.44 156.149 77.524 156.457 77.65C156.765 77.776 156.989 77.902 157.157 78.042C157.311 78.182 157.451 78.364 157.577 78.602C157.703 78.84 157.773 79.106 157.773 79.4C157.773 80.1 157.493 80.674 156.947 81.094C156.401 81.514 155.673 81.724 154.777 81.724C153.797 81.724 153.041 81.514 152.509 81.08C151.977 80.66 151.697 80.03 151.669 79.218H152.845C152.901 80.24 153.559 80.744 154.805 80.744C155.337 80.744 155.757 80.646 156.079 80.422C156.401 80.198 156.569 79.904 156.569 79.54C156.569 79.302 156.485 79.106 156.317 78.938C156.149 78.784 155.953 78.672 155.757 78.602C155.547 78.532 155.253 78.448 154.875 78.35C154.819 78.35 154.777 78.336 154.749 78.322C154.665 78.308 154.483 78.266 154.203 78.21C153.923 78.154 153.727 78.098 153.615 78.056C153.489 78.028 153.307 77.972 153.083 77.888C152.859 77.804 152.691 77.72 152.579 77.636C152.467 77.552 152.341 77.44 152.201 77.3C152.061 77.16 151.977 77.006 151.921 76.824C151.865 76.642 151.837 76.432 151.837 76.194C151.837 75.55 152.075 75.032 152.579 74.64C153.083 74.262 153.755 74.066 154.595 74.066C155.435 74.066 156.135 74.276 156.667 74.668C157.199 75.074 157.479 75.648 157.479 76.376ZM165.291 79.218C164.927 80.898 163.877 81.738 162.141 81.738C161.077 81.738 160.237 81.416 159.635 80.744C159.033 80.086 158.739 79.162 158.739 77.986C158.739 76.824 159.047 75.886 159.663 75.158C160.279 74.43 161.091 74.066 162.099 74.066C163.205 74.066 164.031 74.444 164.563 75.2C165.095 75.956 165.375 76.894 165.375 78.042V78.21H159.943L159.929 78.294C159.929 79.064 160.125 79.666 160.531 80.1C160.923 80.548 161.483 80.758 162.183 80.758C162.701 80.758 163.107 80.646 163.415 80.394C163.723 80.156 163.961 79.764 164.129 79.218H165.291ZM164.143 77.244C164.087 76.558 163.877 76.026 163.513 75.634C163.149 75.242 162.659 75.046 162.071 75.046C161.483 75.046 161.007 75.242 160.629 75.634C160.237 76.026 160.013 76.572 159.943 77.244H164.143ZM176.749 78.868C176.637 79.736 176.315 80.436 175.755 80.94C175.195 81.458 174.481 81.71 173.585 81.71C172.493 81.71 171.653 81.374 171.051 80.702C170.463 80.03 170.155 79.12 170.155 77.986C170.155 76.782 170.477 75.83 171.093 75.13C171.723 74.43 172.563 74.066 173.627 74.066C174.523 74.066 175.223 74.29 175.755 74.738C176.287 75.186 176.609 75.816 176.693 76.642H175.461C175.251 75.592 174.649 75.074 173.655 75.074C172.955 75.074 172.409 75.326 172.017 75.83C171.611 76.334 171.415 77.034 171.415 77.902C171.415 78.77 171.597 79.47 171.989 79.974C172.367 80.478 172.899 80.73 173.571 80.73C174.103 80.73 174.551 80.562 174.887 80.254C175.223 79.932 175.447 79.47 175.545 78.868H176.749ZM179.242 71.532V75.298C179.774 74.5 180.558 74.094 181.608 74.094C183.232 74.094 184.044 74.92 184.044 76.558V81.5H182.854V76.838C182.854 76.292 182.728 75.872 182.504 75.578C182.28 75.284 181.86 75.13 181.272 75.13C180.544 75.13 180.012 75.368 179.704 75.83C179.396 76.306 179.242 76.964 179.242 77.832V81.5H178.052V71.532H179.242ZM192.006 79.218C191.642 80.898 190.592 81.738 188.856 81.738C187.792 81.738 186.952 81.416 186.35 80.744C185.748 80.086 185.454 79.162 185.454 77.986C185.454 76.824 185.762 75.886 186.378 75.158C186.994 74.43 187.806 74.066 188.814 74.066C189.92 74.066 190.746 74.444 191.278 75.2C191.81 75.956 192.09 76.894 192.09 78.042V78.21H186.658L186.644 78.294C186.644 79.064 186.84 79.666 187.246 80.1C187.638 80.548 188.198 80.758 188.898 80.758C189.416 80.758 189.822 80.646 190.13 80.394C190.438 80.156 190.676 79.764 190.844 79.218H192.006ZM190.858 77.244C190.802 76.558 190.592 76.026 190.228 75.634C189.864 75.242 189.374 75.046 188.786 75.046C188.198 75.046 187.722 75.242 187.344 75.634C186.952 76.026 186.728 76.572 186.658 77.244H190.858ZM199.567 78.868C199.455 79.736 199.133 80.436 198.573 80.94C198.013 81.458 197.299 81.71 196.403 81.71C195.311 81.71 194.471 81.374 193.869 80.702C193.281 80.03 192.973 79.12 192.973 77.986C192.973 76.782 193.295 75.83 193.911 75.13C194.541 74.43 195.381 74.066 196.445 74.066C197.341 74.066 198.041 74.29 198.573 74.738C199.105 75.186 199.427 75.816 199.511 76.642H198.279C198.069 75.592 197.467 75.074 196.473 75.074C195.773 75.074 195.227 75.326 194.835 75.83C194.429 76.334 194.233 77.034 194.233 77.902C194.233 78.77 194.415 79.47 194.807 79.974C195.185 80.478 195.717 80.73 196.389 80.73C196.921 80.73 197.369 80.562 197.705 80.254C198.041 79.932 198.265 79.47 198.363 78.868H199.567ZM206.947 74.276L204.077 76.894L207.157 81.5H205.645L203.167 77.72L202.033 78.77V81.5H200.871V71.532H202.033V77.426L205.351 74.276H206.947ZM218.005 74.276L214.911 82.424C214.785 82.76 214.673 83.012 214.589 83.194C214.505 83.376 214.379 83.572 214.211 83.796C214.043 84.02 213.847 84.174 213.623 84.272C213.399 84.37 213.133 84.412 212.825 84.412C212.587 84.412 212.293 84.37 211.943 84.286V83.222C212.279 83.334 212.545 83.376 212.713 83.376C213.105 83.376 213.385 83.18 213.553 82.774L214.113 81.458L211.243 74.276H212.587L214.729 80.03L216.759 74.276H218.005ZM222.191 74.066C223.283 74.066 224.123 74.402 224.739 75.074C225.341 75.732 225.649 76.656 225.649 77.846C225.649 79.078 225.341 80.03 224.739 80.702C224.123 81.388 223.269 81.724 222.177 81.724C221.071 81.724 220.203 81.388 219.587 80.716C218.957 80.044 218.649 79.12 218.649 77.916C218.649 76.74 218.957 75.802 219.601 75.102C220.231 74.416 221.099 74.066 222.191 74.066ZM222.163 75.074C221.463 75.074 220.903 75.326 220.497 75.83C220.077 76.348 219.881 77.034 219.881 77.888C219.881 78.784 220.077 79.47 220.483 79.974C220.889 80.478 221.463 80.716 222.191 80.716C222.891 80.716 223.437 80.464 223.829 79.96C224.221 79.456 224.431 78.77 224.431 77.874C224.431 77.02 224.221 76.334 223.815 75.83C223.409 75.326 222.863 75.074 222.163 75.074ZM233.058 74.276L233.044 81.5H231.938V80.366C231.322 81.262 230.496 81.696 229.446 81.696C228.69 81.696 228.088 81.486 227.668 81.066C227.248 80.646 227.038 80.044 227.038 79.246V74.276H228.228V78.924C228.228 79.498 228.34 79.932 228.564 80.226C228.788 80.52 229.18 80.66 229.754 80.66C231.154 80.66 231.868 79.792 231.868 78.056V74.276H233.058ZM238.611 74.108L238.597 75.354C238.513 75.34 238.415 75.34 238.289 75.34C237.911 75.34 237.575 75.396 237.295 75.508C237.015 75.62 236.805 75.774 236.637 75.956C236.469 76.152 236.343 76.376 236.231 76.656C236.133 76.936 236.063 77.216 236.035 77.496C236.007 77.776 235.993 78.098 235.993 78.448V81.5H234.803V74.276H235.937V75.83C236.413 74.682 237.295 74.108 238.611 74.108ZM244.664 71.532V72.988H243.46V71.532H244.664ZM244.664 74.276V81.5H243.46V74.276H244.664ZM247.627 74.276V75.396C248.215 74.528 249.041 74.08 250.091 74.08C250.931 74.08 251.547 74.304 251.925 74.752C252.303 75.2 252.499 75.844 252.499 76.698V81.5H251.309V77.244C251.309 76.894 251.295 76.614 251.267 76.418C251.239 76.222 251.183 75.998 251.099 75.774C251.001 75.55 250.847 75.382 250.623 75.27C250.399 75.172 250.105 75.116 249.755 75.116C248.383 75.116 247.697 75.984 247.697 77.72V81.5H246.507V74.276H247.627ZM255.463 71.532V75.27C255.981 74.486 256.779 74.08 257.857 74.08C258.837 74.08 259.635 74.43 260.223 75.116C260.811 75.802 261.119 76.712 261.119 77.86C261.119 79.036 260.811 79.96 260.209 80.66C259.593 81.36 258.795 81.71 257.787 81.71C256.639 81.71 255.841 81.29 255.393 80.45V81.5H254.273V71.532H255.463ZM257.675 75.088C256.905 75.088 256.331 75.368 255.967 75.914C255.603 76.474 255.421 77.146 255.421 77.944C255.421 78.798 255.617 79.47 256.023 79.974C256.429 80.478 256.975 80.716 257.675 80.716C258.333 80.716 258.865 80.464 259.271 79.946C259.677 79.428 259.887 78.742 259.887 77.874C259.887 77.034 259.677 76.348 259.285 75.844C258.879 75.34 258.347 75.088 257.675 75.088ZM265.749 74.066C266.841 74.066 267.681 74.402 268.297 75.074C268.899 75.732 269.207 76.656 269.207 77.846C269.207 79.078 268.899 80.03 268.297 80.702C267.681 81.388 266.827 81.724 265.735 81.724C264.629 81.724 263.761 81.388 263.145 80.716C262.515 80.044 262.207 79.12 262.207 77.916C262.207 76.74 262.515 75.802 263.159 75.102C263.789 74.416 264.657 74.066 265.749 74.066ZM265.721 75.074C265.021 75.074 264.461 75.326 264.055 75.83C263.635 76.348 263.439 77.034 263.439 77.888C263.439 78.784 263.635 79.47 264.041 79.974C264.447 80.478 265.021 80.716 265.749 80.716C266.449 80.716 266.995 80.464 267.387 79.96C267.779 79.456 267.989 78.77 267.989 77.874C267.989 77.02 267.779 76.334 267.373 75.83C266.967 75.326 266.421 75.074 265.721 75.074ZM276.561 74.276L274.041 77.608L276.855 81.5H275.329L273.299 78.532L271.297 81.5H269.855L272.571 77.692L270.065 74.276H271.577L273.327 76.754L275.119 74.276H276.561ZM288.165 80.548V81.486C287.913 81.57 287.647 81.626 287.353 81.626C286.667 81.626 286.317 81.262 286.303 80.562C285.617 81.318 284.749 81.71 283.685 81.71C282.971 81.71 282.411 81.528 281.991 81.164C281.571 80.8 281.375 80.296 281.375 79.666C281.375 78.378 282.229 77.622 283.937 77.412C284.049 77.384 284.203 77.37 284.427 77.356C285.239 77.258 285.729 77.146 285.925 77.034C286.135 76.88 286.247 76.628 286.247 76.264C286.247 75.466 285.701 75.074 284.609 75.074C284.049 75.074 283.615 75.186 283.335 75.41C283.041 75.634 282.873 76.012 282.817 76.544H281.655C281.669 75.76 281.949 75.158 282.481 74.738C283.013 74.304 283.741 74.094 284.679 74.094C285.687 74.094 286.443 74.318 286.947 74.794C287.101 74.934 287.213 75.13 287.297 75.382C287.367 75.62 287.409 75.816 287.423 75.97C287.423 76.124 287.437 76.362 287.437 76.67C287.437 77.02 287.423 77.552 287.409 78.266C287.381 78.994 287.381 79.526 287.381 79.876C287.381 80.142 287.409 80.324 287.479 80.436C287.549 80.548 287.675 80.59 287.871 80.59C287.941 80.59 288.039 80.576 288.165 80.548ZM286.247 77.762C286.163 77.818 286.065 77.874 285.981 77.93C285.883 77.972 285.757 78.014 285.617 78.042C285.477 78.07 285.379 78.084 285.323 78.098C285.267 78.112 285.155 78.126 284.959 78.154C284.763 78.182 284.651 78.196 284.651 78.196C284.357 78.224 284.161 78.252 284.077 78.266C283.993 78.28 283.825 78.322 283.573 78.392C283.321 78.448 283.153 78.532 283.055 78.616C282.943 78.7 282.845 78.812 282.747 78.98C282.649 79.148 282.607 79.344 282.607 79.568C282.607 79.932 282.733 80.226 282.985 80.45C283.237 80.66 283.601 80.772 284.049 80.772C284.609 80.772 285.127 80.604 285.575 80.268C286.023 79.932 286.247 79.526 286.247 79.078V77.762ZM290.407 74.276V75.396C290.995 74.528 291.821 74.08 292.871 74.08C293.711 74.08 294.327 74.304 294.705 74.752C295.083 75.2 295.279 75.844 295.279 76.698V81.5H294.089V77.244C294.089 76.894 294.075 76.614 294.047 76.418C294.019 76.222 293.963 75.998 293.879 75.774C293.781 75.55 293.627 75.382 293.403 75.27C293.179 75.172 292.885 75.116 292.535 75.116C291.163 75.116 290.477 75.984 290.477 77.72V81.5H289.287V74.276H290.407ZM303.576 71.532V81.5H302.456V80.436C301.994 81.276 301.196 81.696 300.076 81.696C299.04 81.696 298.228 81.36 297.626 80.674C297.024 79.988 296.73 79.05 296.73 77.874C296.73 76.782 297.01 75.886 297.57 75.158C298.13 74.43 298.956 74.066 300.02 74.066C301.056 74.066 301.84 74.458 302.386 75.242V71.532H303.576ZM300.174 75.088C299.488 75.088 298.942 75.34 298.55 75.83C298.158 76.334 297.962 77.006 297.962 77.846C297.962 78.728 298.158 79.428 298.564 79.946C298.97 80.464 299.516 80.716 300.202 80.716C300.888 80.716 301.434 80.478 301.826 79.974C302.218 79.47 302.414 78.784 302.414 77.888C302.414 77.104 302.218 76.432 301.854 75.9C301.49 75.368 300.93 75.088 300.174 75.088ZM315.435 79.218C315.071 80.898 314.021 81.738 312.285 81.738C311.221 81.738 310.381 81.416 309.779 80.744C309.177 80.086 308.883 79.162 308.883 77.986C308.883 76.824 309.191 75.886 309.807 75.158C310.423 74.43 311.235 74.066 312.243 74.066C313.349 74.066 314.175 74.444 314.707 75.2C315.239 75.956 315.519 76.894 315.519 78.042V78.21H310.087L310.073 78.294C310.073 79.064 310.269 79.666 310.675 80.1C311.067 80.548 311.627 80.758 312.327 80.758C312.845 80.758 313.251 80.646 313.559 80.394C313.867 80.156 314.105 79.764 314.273 79.218H315.435ZM314.287 77.244C314.231 76.558 314.021 76.026 313.657 75.634C313.293 75.242 312.803 75.046 312.215 75.046C311.627 75.046 311.151 75.242 310.773 75.634C310.381 76.026 310.157 76.572 310.087 77.244H314.287ZM317.901 74.276V75.396C318.489 74.528 319.315 74.08 320.365 74.08C321.205 74.08 321.821 74.304 322.199 74.752C322.577 75.2 322.773 75.844 322.773 76.698V81.5H321.583V77.244C321.583 76.894 321.569 76.614 321.541 76.418C321.513 76.222 321.457 75.998 321.373 75.774C321.275 75.55 321.121 75.382 320.897 75.27C320.673 75.172 320.379 75.116 320.029 75.116C318.657 75.116 317.971 75.984 317.971 77.72V81.5H316.781V74.276H317.901ZM327.654 74.276V75.256H326.212V79.47C326.212 79.708 326.212 79.862 326.212 79.932C326.212 80.016 326.24 80.114 326.296 80.24C326.338 80.366 326.422 80.45 326.534 80.478C326.646 80.52 326.8 80.534 327.01 80.534C327.178 80.534 327.402 80.52 327.654 80.492V81.514C327.318 81.556 327.01 81.57 326.744 81.57C326.408 81.57 326.128 81.542 325.904 81.458C325.68 81.388 325.498 81.304 325.386 81.206C325.274 81.122 325.19 80.954 325.134 80.716C325.078 80.478 325.036 80.282 325.036 80.114C325.022 79.946 325.022 79.68 325.022 79.288V79.232V79.162V79.092V75.256H323.804V74.276H325.022V72.134H326.212V74.276H327.654ZM335.15 79.218C334.786 80.898 333.736 81.738 332 81.738C330.936 81.738 330.096 81.416 329.494 80.744C328.892 80.086 328.598 79.162 328.598 77.986C328.598 76.824 328.906 75.886 329.522 75.158C330.138 74.43 330.95 74.066 331.958 74.066C333.064 74.066 333.89 74.444 334.422 75.2C334.954 75.956 335.234 76.894 335.234 78.042V78.21H329.802L329.788 78.294C329.788 79.064 329.984 79.666 330.39 80.1C330.782 80.548 331.342 80.758 332.042 80.758C332.56 80.758 332.966 80.646 333.274 80.394C333.582 80.156 333.82 79.764 333.988 79.218H335.15ZM334.002 77.244C333.946 76.558 333.736 76.026 333.372 75.634C333.008 75.242 332.518 75.046 331.93 75.046C331.342 75.046 330.866 75.242 330.488 75.634C330.096 76.026 329.872 76.572 329.802 77.244H334.002ZM340.262 74.108L340.248 75.354C340.164 75.34 340.066 75.34 339.94 75.34C339.562 75.34 339.226 75.396 338.946 75.508C338.666 75.62 338.456 75.774 338.288 75.956C338.12 76.152 337.994 76.376 337.882 76.656C337.784 76.936 337.714 77.216 337.686 77.496C337.658 77.776 337.644 78.098 337.644 78.448V81.5H336.454V74.276H337.588V75.83C338.064 74.682 338.946 74.108 340.262 74.108ZM348.148 74.276V75.256H346.706V79.47C346.706 79.708 346.706 79.862 346.706 79.932C346.706 80.016 346.734 80.114 346.79 80.24C346.832 80.366 346.916 80.45 347.028 80.478C347.14 80.52 347.294 80.534 347.504 80.534C347.672 80.534 347.896 80.52 348.148 80.492V81.514C347.812 81.556 347.504 81.57 347.238 81.57C346.902 81.57 346.622 81.542 346.398 81.458C346.174 81.388 345.992 81.304 345.88 81.206C345.768 81.122 345.684 80.954 345.628 80.716C345.572 80.478 345.53 80.282 345.53 80.114C345.516 79.946 345.516 79.68 345.516 79.288V79.232V79.162V79.092V75.256H344.298V74.276H345.516V72.134H346.706V74.276H348.148ZM350.66 71.532V75.298C351.192 74.5 351.976 74.094 353.026 74.094C354.65 74.094 355.462 74.92 355.462 76.558V81.5H354.272V76.838C354.272 76.292 354.146 75.872 353.922 75.578C353.698 75.284 353.278 75.13 352.69 75.13C351.962 75.13 351.43 75.368 351.122 75.83C350.814 76.306 350.66 76.964 350.66 77.832V81.5H349.47V71.532H350.66ZM363.424 79.218C363.06 80.898 362.01 81.738 360.274 81.738C359.21 81.738 358.37 81.416 357.768 80.744C357.166 80.086 356.872 79.162 356.872 77.986C356.872 76.824 357.18 75.886 357.796 75.158C358.412 74.43 359.224 74.066 360.232 74.066C361.338 74.066 362.164 74.444 362.696 75.2C363.228 75.956 363.508 76.894 363.508 78.042V78.21H358.076L358.062 78.294C358.062 79.064 358.258 79.666 358.664 80.1C359.056 80.548 359.616 80.758 360.316 80.758C360.834 80.758 361.24 80.646 361.548 80.394C361.856 80.156 362.094 79.764 362.262 79.218H363.424ZM362.276 77.244C362.22 76.558 362.01 76.026 361.646 75.634C361.282 75.242 360.792 75.046 360.204 75.046C359.616 75.046 359.14 75.242 358.762 75.634C358.37 76.026 358.146 76.572 358.076 77.244H362.276ZM374.882 78.868C374.77 79.736 374.448 80.436 373.888 80.94C373.328 81.458 372.614 81.71 371.718 81.71C370.626 81.71 369.786 81.374 369.184 80.702C368.596 80.03 368.288 79.12 368.288 77.986C368.288 76.782 368.61 75.83 369.226 75.13C369.856 74.43 370.696 74.066 371.76 74.066C372.656 74.066 373.356 74.29 373.888 74.738C374.42 75.186 374.742 75.816 374.826 76.642H373.594C373.384 75.592 372.782 75.074 371.788 75.074C371.088 75.074 370.542 75.326 370.15 75.83C369.744 76.334 369.548 77.034 369.548 77.902C369.548 78.77 369.73 79.47 370.122 79.974C370.5 80.478 371.032 80.73 371.704 80.73C372.236 80.73 372.684 80.562 373.02 80.254C373.356 79.932 373.58 79.47 373.678 78.868H374.882ZM379.349 74.066C380.441 74.066 381.281 74.402 381.897 75.074C382.499 75.732 382.807 76.656 382.807 77.846C382.807 79.078 382.499 80.03 381.897 80.702C381.281 81.388 380.427 81.724 379.335 81.724C378.229 81.724 377.361 81.388 376.745 80.716C376.115 80.044 375.807 79.12 375.807 77.916C375.807 76.74 376.115 75.802 376.759 75.102C377.389 74.416 378.257 74.066 379.349 74.066ZM379.321 75.074C378.621 75.074 378.061 75.326 377.655 75.83C377.235 76.348 377.039 77.034 377.039 77.888C377.039 78.784 377.235 79.47 377.641 79.974C378.047 80.478 378.621 80.716 379.349 80.716C380.049 80.716 380.595 80.464 380.987 79.96C381.379 79.456 381.589 78.77 381.589 77.874C381.589 77.02 381.379 76.334 380.973 75.83C380.567 75.326 380.021 75.074 379.321 75.074ZM390.734 71.532V81.5H389.614V80.436C389.152 81.276 388.354 81.696 387.234 81.696C386.198 81.696 385.386 81.36 384.784 80.674C384.182 79.988 383.888 79.05 383.888 77.874C383.888 76.782 384.168 75.886 384.728 75.158C385.288 74.43 386.114 74.066 387.178 74.066C388.214 74.066 388.998 74.458 389.544 75.242V71.532H390.734ZM387.332 75.088C386.646 75.088 386.1 75.34 385.708 75.83C385.316 76.334 385.12 77.006 385.12 77.846C385.12 78.728 385.316 79.428 385.722 79.946C386.128 80.464 386.674 80.716 387.36 80.716C388.046 80.716 388.592 80.478 388.984 79.974C389.376 79.47 389.572 78.784 389.572 77.888C389.572 77.104 389.376 76.432 389.012 75.9C388.648 75.368 388.088 75.088 387.332 75.088ZM398.697 79.218C398.333 80.898 397.283 81.738 395.547 81.738C394.483 81.738 393.643 81.416 393.041 80.744C392.439 80.086 392.145 79.162 392.145 77.986C392.145 76.824 392.453 75.886 393.069 75.158C393.685 74.43 394.497 74.066 395.505 74.066C396.611 74.066 397.437 74.444 397.969 75.2C398.501 75.956 398.781 76.894 398.781 78.042V78.21H393.349L393.335 78.294C393.335 79.064 393.531 79.666 393.937 80.1C394.329 80.548 394.889 80.758 395.589 80.758C396.107 80.758 396.513 80.646 396.821 80.394C397.129 80.156 397.367 79.764 397.535 79.218H398.697ZM397.549 77.244C397.493 76.558 397.283 76.026 396.919 75.634C396.555 75.242 396.065 75.046 395.477 75.046C394.889 75.046 394.413 75.242 394.035 75.634C393.643 76.026 393.419 76.572 393.349 77.244H397.549ZM407.033 74.276V75.256H405.591V79.47C405.591 79.708 405.591 79.862 405.591 79.932C405.591 80.016 405.619 80.114 405.675 80.24C405.717 80.366 405.801 80.45 405.913 80.478C406.025 80.52 406.179 80.534 406.389 80.534C406.557 80.534 406.781 80.52 407.033 80.492V81.514C406.697 81.556 406.389 81.57 406.123 81.57C405.787 81.57 405.507 81.542 405.283 81.458C405.059 81.388 404.877 81.304 404.765 81.206C404.653 81.122 404.569 80.954 404.513 80.716C404.457 80.478 404.415 80.282 404.415 80.114C404.401 79.946 404.401 79.68 404.401 79.288V79.232V79.162V79.092V75.256H403.183V74.276H404.401V72.134H405.591V74.276H407.033ZM411.519 74.066C412.611 74.066 413.451 74.402 414.067 75.074C414.669 75.732 414.977 76.656 414.977 77.846C414.977 79.078 414.669 80.03 414.067 80.702C413.451 81.388 412.597 81.724 411.505 81.724C410.399 81.724 409.531 81.388 408.915 80.716C408.285 80.044 407.977 79.12 407.977 77.916C407.977 76.74 408.285 75.802 408.929 75.102C409.559 74.416 410.427 74.066 411.519 74.066ZM411.491 75.074C410.791 75.074 410.231 75.326 409.825 75.83C409.405 76.348 409.209 77.034 409.209 77.888C409.209 78.784 409.405 79.47 409.811 79.974C410.217 80.478 410.791 80.716 411.519 80.716C412.219 80.716 412.765 80.464 413.157 79.96C413.549 79.456 413.759 78.77 413.759 77.874C413.759 77.02 413.549 76.334 413.143 75.83C412.737 75.326 412.191 75.074 411.491 75.074ZM421.411 74.276V75.298C421.929 74.472 422.741 74.052 423.847 74.052C424.855 74.052 425.653 74.402 426.241 75.074C426.829 75.76 427.137 76.684 427.137 77.846C427.137 79.022 426.843 79.946 426.255 80.646C425.667 81.346 424.883 81.682 423.903 81.682C422.867 81.682 422.055 81.29 421.481 80.492V84.286H420.291V74.276H421.411ZM423.665 75.046C422.965 75.046 422.419 75.298 422.027 75.802C421.635 76.306 421.439 76.992 421.439 77.86C421.439 78.742 421.635 79.428 422.041 79.932C422.447 80.436 423.007 80.688 423.707 80.688C424.379 80.688 424.925 80.436 425.317 79.932C425.709 79.428 425.905 78.742 425.905 77.874C425.905 76.992 425.695 76.306 425.303 75.802C424.911 75.298 424.365 75.046 423.665 75.046ZM432.355 74.108L432.341 75.354C432.257 75.34 432.159 75.34 432.033 75.34C431.655 75.34 431.319 75.396 431.039 75.508C430.759 75.62 430.549 75.774 430.381 75.956C430.213 76.152 430.087 76.376 429.975 76.656C429.877 76.936 429.807 77.216 429.779 77.496C429.751 77.776 429.737 78.098 429.737 78.448V81.5H428.547V74.276H429.681V75.83C430.157 74.682 431.039 74.108 432.355 74.108ZM436.169 74.066C437.261 74.066 438.101 74.402 438.717 75.074C439.319 75.732 439.627 76.656 439.627 77.846C439.627 79.078 439.319 80.03 438.717 80.702C438.101 81.388 437.247 81.724 436.155 81.724C435.049 81.724 434.181 81.388 433.565 80.716C432.935 80.044 432.627 79.12 432.627 77.916C432.627 76.74 432.935 75.802 433.579 75.102C434.209 74.416 435.077 74.066 436.169 74.066ZM436.141 75.074C435.441 75.074 434.881 75.326 434.475 75.83C434.055 76.348 433.859 77.034 433.859 77.888C433.859 78.784 434.055 79.47 434.461 79.974C434.867 80.478 435.441 80.716 436.169 80.716C436.869 80.716 437.415 80.464 437.807 79.96C438.199 79.456 438.409 78.77 438.409 77.874C438.409 77.02 438.199 76.334 437.793 75.83C437.387 75.326 436.841 75.074 436.141 75.074ZM447.26 78.868C447.148 79.736 446.826 80.436 446.266 80.94C445.706 81.458 444.992 81.71 444.096 81.71C443.004 81.71 442.164 81.374 441.562 80.702C440.974 80.03 440.666 79.12 440.666 77.986C440.666 76.782 440.988 75.83 441.604 75.13C442.234 74.43 443.074 74.066 444.138 74.066C445.034 74.066 445.734 74.29 446.266 74.738C446.798 75.186 447.12 75.816 447.204 76.642H445.972C445.762 75.592 445.16 75.074 444.166 75.074C443.466 75.074 442.92 75.326 442.528 75.83C442.122 76.334 441.926 77.034 441.926 77.902C441.926 78.77 442.108 79.47 442.5 79.974C442.878 80.478 443.41 80.73 444.082 80.73C444.614 80.73 445.062 80.562 445.398 80.254C445.734 79.932 445.958 79.47 446.056 78.868H447.26ZM454.738 79.218C454.374 80.898 453.324 81.738 451.588 81.738C450.524 81.738 449.684 81.416 449.082 80.744C448.48 80.086 448.186 79.162 448.186 77.986C448.186 76.824 448.494 75.886 449.11 75.158C449.726 74.43 450.538 74.066 451.546 74.066C452.652 74.066 453.478 74.444 454.01 75.2C454.542 75.956 454.822 76.894 454.822 78.042V78.21H449.39L449.376 78.294C449.376 79.064 449.572 79.666 449.978 80.1C450.37 80.548 450.93 80.758 451.63 80.758C452.148 80.758 452.554 80.646 452.862 80.394C453.17 80.156 453.408 79.764 453.576 79.218H454.738ZM453.59 77.244C453.534 76.558 453.324 76.026 452.96 75.634C452.596 75.242 452.106 75.046 451.518 75.046C450.93 75.046 450.454 75.242 450.076 75.634C449.684 76.026 449.46 76.572 449.39 77.244H453.59ZM462.257 79.218C461.894 80.898 460.844 81.738 459.108 81.738C458.044 81.738 457.204 81.416 456.602 80.744C456 80.086 455.706 79.162 455.706 77.986C455.706 76.824 456.014 75.886 456.63 75.158C457.245 74.43 458.058 74.066 459.066 74.066C460.172 74.066 460.998 74.444 461.53 75.2C462.062 75.956 462.342 76.894 462.342 78.042V78.21H456.91L456.896 78.294C456.896 79.064 457.092 79.666 457.498 80.1C457.89 80.548 458.45 80.758 459.15 80.758C459.668 80.758 460.074 80.646 460.382 80.394C460.69 80.156 460.928 79.764 461.096 79.218H462.257ZM461.11 77.244C461.054 76.558 460.844 76.026 460.48 75.634C460.116 75.242 459.626 75.046 459.038 75.046C458.45 75.046 457.974 75.242 457.596 75.634C457.204 76.026 456.98 76.572 456.91 77.244H461.11ZM470.113 71.532V81.5H468.993V80.436C468.531 81.276 467.733 81.696 466.613 81.696C465.577 81.696 464.765 81.36 464.163 80.674C463.561 79.988 463.267 79.05 463.267 77.874C463.267 76.782 463.547 75.886 464.107 75.158C464.667 74.43 465.493 74.066 466.557 74.066C467.593 74.066 468.377 74.458 468.923 75.242V71.532H470.113ZM466.711 75.088C466.025 75.088 465.479 75.34 465.087 75.83C464.695 76.334 464.499 77.006 464.499 77.846C464.499 78.728 464.695 79.428 465.101 79.946C465.507 80.464 466.053 80.716 466.739 80.716C467.425 80.716 467.971 80.478 468.363 79.974C468.755 79.47 468.951 78.784 468.951 77.888C468.951 77.104 468.755 76.432 468.391 75.9C468.027 75.368 467.467 75.088 466.711 75.088ZM473.722 79.946V81.5H472.168V79.946H473.722Z" fill="#A7A7A7"/>
<circle cx="619" cy="66" r="14" fill="#324B50"/>
<path d="M619 50C610.162 50 603 57.164 603 66C603 74.836 610.162 82 619 82C627.838 82 635 74.836 635 66C635 57.164 627.838 50 619 50ZM626.414 70.586C626.789 70.961 627 71.4696 627 72C627 72.5304 626.789 73.039 626.414 73.414C626.039 73.789 625.53 73.9997 625 73.9997C624.47 73.9997 623.961 73.789 623.586 73.414L619 68.828L614.414 73.414C614.229 73.6004 614.008 73.7483 613.766 73.8492C613.523 73.9501 613.263 74.0021 613 74.0021C612.737 74.0021 612.477 73.9501 612.234 73.8492C611.992 73.7483 611.771 73.6004 611.586 73.414C611.211 73.0389 611 72.5303 611 72C611 71.4697 611.211 70.9611 611.586 70.586L616.172 66L611.586 61.414C611.211 61.039 611 60.5304 611 60C611 59.4696 611.211 58.961 611.586 58.586C611.961 58.211 612.47 58.0003 613 58.0003C613.53 58.0003 614.039 58.211 614.414 58.586L619 63.172L623.586 58.586C623.961 58.211 624.47 58.0003 625 58.0003C625.53 58.0003 626.039 58.211 626.414 58.586C626.789 58.961 627 59.4696 627 60C627 60.5304 626.789 61.039 626.414 61.414L621.828 66L626.414 70.586Z" fill="white"/>
</g>
<defs>
<filter id="filter0_d_42_16" x="0.5" y="0.5" width="702" height="169" filterUnits="userSpaceOnUse" color-interpolation-filters="sRGB">
<feFlood flood-opacity="0" result="BackgroundImageFix"/>
<feColorMatrix in="SourceAlpha" type="matrix" values="0 0 0 0 0 0 0 0 0 0 0 0 0 0 0 0 0 0 127 0" result="hardAlpha"/>
<feOffset dx="3" dy="19"/>
<feGaussianBlur stdDeviation="22.25"/>
<feComposite in2="hardAlpha" operator="out"/>
<feColorMatrix type="matrix" values="0 0 0 0 0 0 0 0 0 0 0 0 0 0 0 0 0 0 0.1 0"/>
<feBlend mode="normal" in2="BackgroundImageFix" result="effect1_dropShadow_42_16"/>
<feBlend mode="normal" in="SourceGraphic" in2="effect1_dropShadow_42_16" result="shape"/>
</filter>
<linearGradient id="paint0_linear_42_16" x1="52.75" y1="36" x2="112.75" y2="96" gradientUnits="userSpaceOnUse">
<stop stop-color="#D7F3F7"/>
<stop offset="1" stop-color="#E8F6DD"/>
</linearGradient>
</defs>
</svg>
