<svg width="16" height="16" viewBox="0 0 16 16" fill="none" xmlns="http://www.w3.org/2000/svg">
<path d="M12.6167 5.34166C12.9406 5.34166 13.2614 5.27785 13.5606 5.15389C13.8599 5.02993 14.1318 4.84824 14.3609 4.61919C14.5899 4.39014 14.7716 4.11821 14.8956 3.81894C15.0195 3.51967 15.0834 3.19892 15.0834 2.87499C15.0834 2.55106 15.0195 2.23031 14.8956 1.93104C14.7716 1.63177 14.5899 1.35985 14.3609 1.13079C14.1318 0.901744 13.8599 0.72005 13.5606 0.596089C13.2614 0.472127 12.9406 0.408325 12.6167 0.408325C11.9625 0.408325 11.3351 0.668205 10.8725 1.13079C10.4099 1.59338 10.15 2.22079 10.15 2.87499C10.15 3.52919 10.4099 4.1566 10.8725 4.61919C11.3351 5.08178 11.9625 5.34166 12.6167 5.34166ZM3.38335 5.34166C3.70728 5.34166 4.02804 5.27785 4.32731 5.15389C4.62657 5.02993 4.8985 4.84824 5.12755 4.61919C5.3566 4.39014 5.53829 4.11821 5.66226 3.81894C5.78622 3.51967 5.85002 3.19892 5.85002 2.87499C5.85002 2.55106 5.78622 2.23031 5.66226 1.93104C5.53829 1.63177 5.3566 1.35985 5.12755 1.13079C4.8985 0.901744 4.62657 0.72005 4.32731 0.596089C4.02804 0.472127 3.70728 0.408325 3.38335 0.408325C2.72915 0.408325 2.10175 0.668205 1.63916 1.13079C1.17657 1.59338 0.916687 2.22079 0.916687 2.87499C0.916687 3.52919 1.17657 4.1566 1.63916 4.61919C2.10175 5.08178 2.72915 5.34166 3.38335 5.34166ZM12.6167 15.5925C13.2709 15.5925 13.8983 15.3326 14.3609 14.87C14.8235 14.4074 15.0834 13.78 15.0834 13.1258C15.0834 12.4716 14.8235 11.8442 14.3609 11.3816C13.8983 10.919 13.2709 10.6592 12.6167 10.6592C11.9625 10.6592 11.3351 10.919 10.8725 11.3816C10.4099 11.8442 10.15 12.4716 10.15 13.1258C10.15 13.78 10.4099 14.4074 10.8725 14.87C11.3351 15.3326 11.9625 15.5925 12.6167 15.5925ZM3.38335 15.5925C4.03755 15.5925 4.66496 15.3326 5.12755 14.87C5.59014 14.4074 5.85002 13.78 5.85002 13.1258C5.85002 12.4716 5.59014 11.8442 5.12755 11.3816C4.66496 10.919 4.03755 10.6592 3.38335 10.6592C2.72915 10.6592 2.10175 10.919 1.63916 11.3816C1.17657 11.8442 0.916687 12.4716 0.916687 13.1258C0.916687 13.78 1.17657 14.4074 1.63916 14.87C2.10175 15.3326 2.72915 15.5925 3.38335 15.5925Z" fill="#25272F"/>
</svg>
