<svg width="40" height="40" viewBox="0 0 40 40" fill="none" xmlns="http://www.w3.org/2000/svg">
<rect x="0.5" y="0.5" width="39" height="39" rx="19.5" stroke="#FFA800"/>
<path d="M24.6167 17.3417C24.9406 17.3417 25.2614 17.2779 25.5606 17.1539C25.8599 17.0299 26.1318 16.8482 26.3609 16.6192C26.5899 16.3901 26.7716 16.1182 26.8956 15.8189C27.0195 15.5197 27.0834 15.1989 27.0834 14.875C27.0834 14.5511 27.0195 14.2303 26.8956 13.931C26.7716 13.6318 26.5899 13.3598 26.3609 13.1308C26.1318 12.9017 25.8599 12.7201 25.5606 12.5961C25.2614 12.4721 24.9406 12.4083 24.6167 12.4083C23.9625 12.4083 23.3351 12.6682 22.8725 13.1308C22.4099 13.5934 22.15 14.2208 22.15 14.875C22.15 15.5292 22.4099 16.1566 22.8725 16.6192C23.3351 17.0818 23.9625 17.3417 24.6167 17.3417ZM15.3834 17.3417C15.7073 17.3417 16.028 17.2779 16.3273 17.1539C16.6266 17.0299 16.8985 16.8482 17.1275 16.6192C17.3566 16.3901 17.5383 16.1182 17.6623 15.8189C17.7862 15.5197 17.85 15.1989 17.85 14.875C17.85 14.5511 17.7862 14.2303 17.6623 13.931C17.5383 13.6318 17.3566 13.3598 17.1275 13.1308C16.8985 12.9017 16.6266 12.7201 16.3273 12.5961C16.028 12.4721 15.7073 12.4083 15.3834 12.4083C14.7292 12.4083 14.1017 12.6682 13.6392 13.1308C13.1766 13.5934 12.9167 14.2208 12.9167 14.875C12.9167 15.5292 13.1766 16.1566 13.6392 16.6192C14.1017 17.0818 14.7292 17.3417 15.3834 17.3417ZM24.6167 27.5925C25.2709 27.5925 25.8983 27.3326 26.3609 26.87C26.8235 26.4074 27.0834 25.78 27.0834 25.1258C27.0834 24.4716 26.8235 23.8442 26.3609 23.3816C25.8983 22.919 25.2709 22.6592 24.6167 22.6592C23.9625 22.6592 23.3351 22.919 22.8725 23.3816C22.4099 23.8442 22.15 24.4716 22.15 25.1258C22.15 25.78 22.4099 26.4074 22.8725 26.87C23.3351 27.3326 23.9625 27.5925 24.6167 27.5925ZM15.3834 27.5925C16.0376 27.5925 16.665 27.3326 17.1275 26.87C17.5901 26.4074 17.85 25.78 17.85 25.1258C17.85 24.4716 17.5901 23.8442 17.1275 23.3816C16.665 22.919 16.0376 22.6592 15.3834 22.6592C14.7292 22.6592 14.1017 22.919 13.6392 23.3816C13.1766 23.8442 12.9167 24.4716 12.9167 25.1258C12.9167 25.78 13.1766 26.4074 13.6392 26.87C14.1017 27.3326 14.7292 27.5925 15.3834 27.5925Z" fill="#FFA800"/>
</svg>
